<svg xmlns="http://www.w3.org/2000/svg" width="229" height="38" fill="none"><g fill="#FF7020"><path d="M15.201 37.158c-1.309 0-2.307-.352-2.996-1.057-.689-.706-1.033-1.713-1.033-3.023V18.471l1.653 4.483L.633 6.08C.15 5.375-.056 4.62.013 3.813c.069-.84.413-1.561 1.033-2.166.62-.604 1.498-.906 2.635-.906.826 0 1.567.201 2.221.604.69.403 1.343 1.041 1.963 1.914l8.266 11.636h-1.653l8.266-11.636c.654-.906 1.291-1.544 1.911-1.914.655-.403 1.412-.604 2.273-.604 1.102 0 1.963.285 2.583.856.62.537.948 1.226.982 2.065.034.806-.258 1.646-.878 2.519L17.578 22.954l1.601-4.483v14.607c0 2.72-1.326 4.08-3.978 4.08ZM42.267 37.26c-2.721 0-5.098-.521-7.13-1.562-1.997-1.041-3.547-2.535-4.65-4.483-1.101-1.948-1.652-4.248-1.652-6.9 0-1.982.31-3.762.93-5.34.62-1.579 1.515-2.922 2.686-4.03 1.205-1.142 2.635-1.998 4.288-2.569 1.653-.604 3.495-.906 5.528-.906 2.72 0 5.08.52 7.077 1.561 2.032 1.041 3.6 2.519 4.701 4.433 1.137 1.914 1.705 4.197 1.705 6.85 0 2.015-.327 3.811-.981 5.39a11.488 11.488 0 0 1-2.687 4.08c-1.17 1.141-2.6 2.014-4.288 2.619-1.653.57-3.495.856-5.527.856Zm0-5.693c1.136 0 2.118-.268 2.944-.805.827-.538 1.481-1.327 1.963-2.368.483-1.074.724-2.434.724-4.08 0-2.451-.517-4.248-1.55-5.39-1.033-1.175-2.394-1.762-4.081-1.762-1.103 0-2.084.251-2.945.755-.827.504-1.481 1.293-1.963 2.367-.448 1.041-.672 2.385-.672 4.03 0 2.451.517 4.282 1.55 5.49 1.033 1.176 2.376 1.763 4.03 1.763ZM69.847 37.26c-2.136 0-3.91-.387-5.321-1.16-1.412-.772-2.463-1.93-3.152-3.475-.654-1.578-.981-3.526-.981-5.843V15.4c0-1.276.327-2.234.981-2.872.69-.638 1.653-.957 2.893-.957 1.24 0 2.205.32 2.893.957.69.638 1.034 1.596 1.034 2.872v11.585c0 1.477.31 2.585.93 3.324.62.705 1.6 1.058 2.944 1.058 1.481 0 2.686-.504 3.616-1.511.965-1.041 1.447-2.401 1.447-4.08V15.399c0-1.276.327-2.234.981-2.872.69-.638 1.654-.957 2.894-.957 1.274 0 2.238.32 2.892.957.69.638 1.034 1.596 1.034 2.872V33.28c0 2.586-1.257 3.878-3.772 3.878-1.24 0-2.186-.335-2.84-1.007-.655-.672-.982-1.629-.982-2.871v-3.375l.775 1.965c-.758 1.712-1.843 3.039-3.255 3.979s-3.083 1.41-5.011 1.41ZM94.998 37.158c-1.31 0-2.308-.335-2.997-1.007-.689-.672-1.033-1.629-1.033-2.871V15.398c0-1.242.327-2.182.982-2.82.688-.672 1.635-1.008 2.841-1.008 1.24 0 2.187.336 2.841 1.008.655.638.982 1.578.982 2.82v2.62h-.517c.414-2.015 1.326-3.577 2.738-4.685 1.412-1.108 3.238-1.73 5.476-1.863.861-.068 1.516.15 1.964.654.482.47.74 1.26.774 2.368.069 1.04-.155 1.863-.671 2.468-.482.604-1.309.974-2.48 1.108l-1.188.1c-1.963.169-3.427.723-4.391 1.663-.93.94-1.395 2.3-1.395 4.08v9.369c0 1.242-.345 2.2-1.033 2.871-.655.672-1.62 1.007-2.893 1.007ZM116.649 37.158c-1.171 0-2.066-.319-2.686-.956-.62-.639-.93-1.528-.93-2.67V4.367c0-1.141.327-2.031.982-2.67.688-.637 1.618-.956 2.789-.956 1.033 0 1.843.201 2.428.604.62.37 1.189 1.024 1.705 1.965l11.934 21.256h-1.757L143.048 3.31c.517-.94 1.068-1.595 1.653-1.965.62-.403 1.43-.604 2.428-.604 1.171 0 2.067.319 2.687.957.654.638.981 1.528.981 2.67v29.164c0 1.142-.31 2.031-.93 2.67-.62.638-1.515.956-2.686.956s-2.084-.319-2.738-.956c-.62-.639-.93-1.528-.93-2.67v-20.4h1.137l-9.609 16.773c-.414.638-.861 1.125-1.344 1.46-.447.303-1.05.454-1.808.454-.757 0-1.377-.168-1.859-.503-.483-.336-.913-.806-1.292-1.41l-9.712-16.825h1.24v20.45c0 1.143-.31 2.032-.93 2.67-.586.639-1.481.957-2.687.957ZM170.686 37.26c-2.997 0-5.58-.521-7.75-1.562-2.135-1.075-3.788-2.57-4.959-4.483-1.137-1.948-1.705-4.231-1.705-6.85 0-2.553.551-4.786 1.653-6.7a11.564 11.564 0 0 1 4.598-4.533c1.998-1.108 4.254-1.662 6.768-1.662 1.825 0 3.478.302 4.959.906 1.481.571 2.756 1.41 3.823 2.519 1.068 1.074 1.877 2.4 2.428 3.98.551 1.544.827 3.273.827 5.187 0 .638-.207 1.125-.62 1.46-.413.303-1.016.454-1.808.454h-16.222v-3.929h13.019l-.827.706c0-1.377-.206-2.519-.62-3.426-.413-.94-1.016-1.645-1.808-2.115-.758-.47-1.705-.705-2.841-.705-1.275 0-2.359.285-3.255.856-.895.57-1.584 1.393-2.066 2.468-.483 1.075-.724 2.367-.724 3.879v.403c0 2.552.603 4.432 1.809 5.641 1.239 1.209 3.065 1.813 5.476 1.813.826 0 1.773-.1 2.841-.302a12.446 12.446 0 0 0 2.996-.957c.792-.37 1.498-.487 2.118-.352.62.1 1.103.369 1.447.806.344.436.534.94.568 1.51.069.571-.051 1.142-.361 1.713-.31.538-.827.99-1.55 1.36-1.171.638-2.497 1.108-3.978 1.41a18.708 18.708 0 0 1-4.236.504ZM194.441 37.26c-1.86 0-3.53-.353-5.011-1.058-1.481-.706-2.635-1.663-3.462-2.872-.826-1.209-1.239-2.568-1.239-4.08 0-1.813.482-3.24 1.446-4.281.964-1.075 2.531-1.83 4.701-2.267 2.17-.47 5.046-.705 8.628-.705h2.738v3.929h-2.687c-1.756 0-3.185.1-4.288.302-1.067.168-1.842.47-2.324.907-.448.436-.672 1.04-.672 1.813 0 .94.327 1.713.982 2.317.688.605 1.67.907 2.944.907.999 0 1.877-.218 2.635-.655a5.142 5.142 0 0 0 1.86-1.864c.448-.806.671-1.712.671-2.72v-5.792c0-1.478-.344-2.519-1.033-3.123-.689-.638-1.86-.957-3.513-.957-.93 0-1.946.117-3.048.352-1.067.202-2.256.554-3.564 1.058-.758.336-1.43.42-2.015.252-.586-.201-1.033-.537-1.343-1.008a3.023 3.023 0 0 1-.465-1.611c0-.605.172-1.176.516-1.713.345-.57.913-.99 1.705-1.26 1.619-.637 3.134-1.074 4.546-1.309 1.447-.235 2.773-.352 3.978-.352 2.652 0 4.822.386 6.51 1.158 1.722.739 3.013 1.897 3.874 3.476.861 1.544 1.292 3.542 1.292 5.994V33.28c0 1.242-.31 2.2-.93 2.871-.62.672-1.516 1.007-2.687 1.007-1.171 0-2.083-.335-2.738-1.007-.62-.672-.93-1.629-.93-2.871v-1.864l.362.302c-.207 1.142-.654 2.133-1.343 2.972-.654.806-1.498 1.444-2.532 1.914-1.033.437-2.221.655-3.564.655ZM223.766 37.26c-3.065 0-5.356-.823-6.871-2.469-1.515-1.679-2.273-4.164-2.273-7.455V4.62c0-1.276.327-2.233.981-2.87.689-.672 1.671-1.008 2.945-1.008 1.24 0 2.187.336 2.841 1.007.689.638 1.034 1.595 1.034 2.871v22.415c0 1.377.292 2.401.878 3.073.62.638 1.429.957 2.428.957.276 0 .534-.017.775-.05.241-.034.499-.051.775-.051.551-.067.93.1 1.136.504.241.369.362 1.125.362 2.266 0 1.008-.207 1.78-.62 2.317-.413.504-1.05.84-1.911 1.008-.345.033-.741.067-1.189.1-.447.068-.878.101-1.291.101Z"/></g></svg>