<svg width="67.000000" height="67.000000" viewBox="0 0 67 67" fill="none" xmlns="http://www.w3.org/2000/svg"
    xmlns:xlink="http://www.w3.org/1999/xlink">
    <g>


        <path id="Vector"
            d="M6.46 5.58C6.14 5.76 5.7 6.15 5.48 6.45L5.09 7.01L5.09 13.98L5.09 20.96L5.43 21.84C6.66 24.97 9.3 27.05 12.47 27.38L13.32 27.47L13.39 43.21L13.45 58.94L13.74 59.41C13.91 59.67 14.29 60.05 14.59 60.26C15.07 60.59 15.24 60.63 16.13 60.63C17.01 60.63 17.19 60.59 17.65 60.28C17.92 60.09 18.3 59.71 18.48 59.44L18.81 58.96L18.88 43.22L18.94 27.47L19.79 27.38C23.04 27.05 25.89 24.72 26.89 21.61C27.17 20.72 27.17 20.57 27.17 13.86L27.17 7.02L26.82 6.51C26.25 5.71 25.65 5.37 24.64 5.32C23.57 5.27 22.8 5.62 22.21 6.45L21.82 7.01L21.75 10.27L21.69 13.55L20.31 13.55L18.94 13.55L18.88 10.29C18.81 7.07 18.81 7.02 18.48 6.55C17.94 5.73 17.27 5.37 16.28 5.32C15.2 5.27 14.43 5.62 13.85 6.45L13.45 7.01L13.39 10.27L13.32 13.55L11.95 13.55L10.58 13.55L10.51 10.29L10.45 7.02L10.09 6.51C9.52 5.71 8.92 5.37 7.91 5.32C7.19 5.28 6.95 5.33 6.46 5.58ZM21.62 19.47C21.62 20.26 20.98 21.13 20.05 21.63C19.63 21.85 19.27 21.87 16.13 21.87C12.84 21.87 12.64 21.86 12.15 21.59C11.26 21.12 10.64 20.25 10.64 19.47L10.64 19.08L16.13 19.08L21.62 19.08L21.62 19.47Z"
            fill="#FF7020" fill-opacity="1.000000" fill-rule="nonzero" />
        <path id="Vector"
            d="M33.55 5.58C33.22 5.76 32.79 6.15 32.57 6.45L32.18 7.01L32.11 21.51L32.05 36.01L30.95 36.34C28.21 37.12 26.16 38.76 25.01 41.06C24 43.1 23.83 43.95 23.83 46.91C23.83 49.08 23.87 49.6 24.1 50.55C25.38 55.59 28.22 59.02 32.18 60.33C32.95 60.58 33.37 60.63 34.86 60.63C36.35 60.63 36.77 60.58 37.54 60.33C41.5 59.02 44.33 55.59 45.61 50.55C45.85 49.6 45.89 49.08 45.89 46.91C45.89 44.73 45.85 44.23 45.6 43.34C44.62 39.73 42.28 37.34 38.77 36.34L37.67 36.01L37.6 21.52L37.54 7.02L37.18 6.51C36.61 5.71 36.01 5.37 35 5.32C34.28 5.28 34.04 5.33 33.55 5.58ZM37.43 41.71C38.9 42.2 39.85 43.34 40.22 44.97C40.46 46.11 40.32 48.94 39.95 50.1C39.27 52.23 37.98 54.03 36.58 54.73C35.71 55.17 34.02 55.18 33.16 54.74C31.67 53.97 30.47 52.31 29.74 50.03C29.47 49.17 29.43 48.8 29.43 46.91C29.43 44.82 29.45 44.75 29.81 43.95C30.47 42.54 31.8 41.63 33.55 41.4C33.55 41.4 36.62 41.45 37.43 41.71Z"
            fill="#FF7020" fill-opacity="1.000000" fill-rule="nonzero" />
        <path id="Vector"
            d="M58.75 5.53C57.07 6.4 54.49 8.76 52.89 10.86C48.92 16.13 46.61 23.57 46.07 32.87C45.87 36.27 45.97 36.78 46.87 37.68C47.74 38.55 47.98 38.59 52.94 38.59L57.2 38.59L57.2 48.64L57.2 58.71L57.51 59.25C57.66 59.57 58.05 60 58.37 60.23C58.88 60.59 59.01 60.63 59.94 60.63C60.82 60.63 61.01 60.59 61.46 60.28C61.74 60.09 62.12 59.71 62.3 59.44L62.63 58.96L62.63 33L62.63 7.02L62.27 6.51C61.7 5.69 61.1 5.37 60.09 5.32C59.44 5.29 59.11 5.33 58.75 5.53ZM57.2 23.76L57.2 33L54.43 33L51.68 33L51.77 31.66C52 28.08 52.88 23.76 54.02 20.57C54.77 18.47 56.81 14.53 57.14 14.53C57.18 14.53 57.2 18.68 57.2 23.76Z"
            fill="#FF7020" fill-opacity="1.000000" fill-rule="nonzero" />
    </g>
</svg>